<svg xmlns="http://www.w3.org/2000/svg" width="37" height="24" viewBox="0 0 37 24">
  <g id="applepay" transform="translate(0 -0.338)">
    <rect id="Rectangle_72" data-name="Rectangle 72" width="37" height="24" rx="12" transform="translate(0 0.338)" fill="none"/>
    <path id="Apple_Pay-Logo.wine" d="M11.418,3.308A3.839,3.839,0,0,1,8.342,4.761a4.353,4.353,0,0,1,1.1-3.186A4.588,4.588,0,0,1,12.492,0a4.635,4.635,0,0,1-1.074,3.308M12.48,4.993c-1.7-.1-3.149.964-3.955.964s-2.051-.916-3.393-.891A5.014,5.014,0,0,0,.871,7.654C-.96,10.8.4,15.466,2.165,18.029c.867,1.27,1.9,2.661,3.271,2.612,1.294-.049,1.807-.842,3.369-.842s2.026.842,3.393.818c1.416-.024,2.307-1.27,3.174-2.539a11.134,11.134,0,0,0,1.416-2.917,4.6,4.6,0,0,1-2.759-4.187,4.7,4.7,0,0,1,2.234-3.931A4.838,4.838,0,0,0,12.48,4.993" transform="translate(10.242 1.792)"/>
  </g>
</svg>
