<svg id="desel_fav" xmlns="http://www.w3.org/2000/svg" width="19" height="19" viewBox="0 0 19 19">
  <rect id="Rectangle_2552" data-name="Rectangle 2552" width="19" height="19" transform="translate(0)" fill="none"/>
  <g id="desel_fav-2" data-name="desel_fav" transform="translate(0.247 0.99)">
    <path id="Path_6371" data-name="Path 6371" d="M16.019,4.5a5.363,5.363,0,0,0-4.041,1.889A5.363,5.363,0,0,0,7.938,4.5,4.907,4.907,0,0,0,3,9.472c0,3.417,3.053,6.2,7.678,10.433l1.3,1.184,1.3-1.193c4.625-4.222,7.678-7.007,7.678-10.424A4.907,4.907,0,0,0,16.019,4.5Z" transform="translate(-2.998 -4.5)" fill="none"/>
    <path id="Path_6372" data-name="Path 6372" d="M7.939,5.738A3.671,3.671,0,0,0,5.311,6.814,3.738,3.738,0,0,0,4.238,9.472a6.555,6.555,0,0,0,1.818,4.119,56.548,56.548,0,0,0,5.422,5.368l.035.032.464.422.469-.43h0l.011-.01A56.632,56.632,0,0,0,17.9,13.6a6.559,6.559,0,0,0,1.824-4.126,3.738,3.738,0,0,0-1.073-2.658,3.671,3.671,0,0,0-2.628-1.076,4.028,4.028,0,0,0-1.71.392,4.149,4.149,0,0,0-1.386,1.059L11.98,8.306l-.945-1.117A4.148,4.148,0,0,0,9.649,6.13a4.028,4.028,0,0,0-1.71-.392m0-1.238A5.363,5.363,0,0,1,11.98,6.389,5.363,5.363,0,0,1,16.021,4.5,4.908,4.908,0,0,1,20.96,9.472c0,3.417-3.053,6.2-7.678,10.424l-1.3,1.193-1.3-1.184C6.053,15.674,3,12.89,3,9.472A4.908,4.908,0,0,1,7.939,4.5Z" transform="translate(-3 -4.5)" fill="#fdc994"/>
  </g>
</svg>
