<svg xmlns="http://www.w3.org/2000/svg" width="19" height="19" viewBox="0 0 19 19">
  <g id="desel_notification" transform="translate(0.092)">
    <rect id="Rectangle_2550" data-name="Rectangle 2550" width="19" height="19" transform="translate(-0.092 -0.001)" fill="none"/>
    <path id="desel_notification-2" data-name="desel_notification" d="M863.9,139.784a1.668,1.668,0,0,1-1.668,1.665h-11.1a1.666,1.666,0,1,1,0-3.331v-4.485a5.552,5.552,0,0,1,11.1,0v4.485A1.668,1.668,0,0,1,863.9,139.784Zm-1.666-.555a1.109,1.109,0,0,1-1.109-1.111v-4.486a4.441,4.441,0,0,0-8.883,0v4.485a1.111,1.111,0,0,1-1.11,1.111.555.555,0,1,0,0,1.11h11.1a.555.555,0,0,0,0-1.11Zm-8.049,3.053h1.11a1.388,1.388,0,1,0,2.776,0h1.111a2.5,2.5,0,0,1-5,0Z" transform="translate(-847.485 -127.091)" fill="#fdc994"/>
  </g>
</svg>
