<svg xmlns="http://www.w3.org/2000/svg" xmlns:xlink="http://www.w3.org/1999/xlink" width="37" height="24" viewBox="0 0 37 24">
  <defs>
    <linearGradient id="linear-gradient" x1="0.392" y1="1.442" x2="0.219" y2="3.01" gradientUnits="objectBoundingBox">
      <stop offset="0.02" stop-color="#ed1c24"/>
      <stop offset="1" stop-color="#be1e2d"/>
    </linearGradient>
  </defs>
  <g id="payfast" transform="translate(0 -0.114)">
    <rect id="Rectangle_72" data-name="Rectangle 72" width="37" height="24" rx="12" transform="translate(0 0.114)" fill="none"/>
    <path id="Path_6382" data-name="Path 6382" d="M18.634,16.364a13.871,13.871,0,0,1-2.592,1.222,12.247,12.247,0,0,1-3.069.76c-.447,0-.909.134-1.371.179h0C7.3,18.9,3.631,17.973,1.53,15.991h0v.238a3.65,3.65,0,0,0,.924,2.384c1.7,1.952,4.976,2.98,8.791,3.084a15.331,15.331,0,0,0,6.511-1.356,7.018,7.018,0,0,0,2.22-1.609,3.65,3.65,0,0,0,.968-2.369,3.442,3.442,0,0,0-.387-1.594,8.7,8.7,0,0,1-1.922,1.594Zm-7.45-2.7c-4.023.313-7.45-.447-9.64-2.16a3.755,3.755,0,0,0,.909,2.16c1.7,1.952,4.976,2.98,8.791,3.084a15.272,15.272,0,0,0,6.63-1.311,6.9,6.9,0,0,0,2.22-1.609,3.665,3.665,0,0,0,.879-2.429,3.486,3.486,0,0,0-.581-1.922c-.551.76-2.92,3.7-9.3,4.172Zm0-1.818a15.227,15.227,0,0,0,6.63-1.311,6.9,6.9,0,0,0,2.309-1.624,3.635,3.635,0,0,0,.968-2.369,3.65,3.65,0,0,0-.968-2.4c-1.713-1.967-4.976-2.98-8.791-3.084A15.272,15.272,0,0,0,4.7,2.373a7,7,0,0,0-2.25,1.579A3.7,3.7,0,0,0,1.5,6.366a3.68,3.68,0,0,0,.924,2.4C4.122,10.717,7.4,11.775,11.185,11.849ZM3.735,4.4c.924-1.132,3.8-2.235,7.167-2.175a13.022,13.022,0,0,1,5.632,1.192,4.634,4.634,0,0,1,1.49,1.1,1.49,1.49,0,0,1,.417.954,1.49,1.49,0,0,1-.432.954c-.924,1.132-3.8,2.235-7.167,2.175A13.067,13.067,0,0,1,5.225,7.469a4.8,4.8,0,0,1-1.49-1.1,1.469,1.469,0,0,1,0-1.922Z" transform="translate(7.462 0.736)" fill="url(#linear-gradient)"/>
  </g>
</svg>
